PathFileType	4	(X/Y/Z)	E:\Qualisys_Data\Carbon_Farble_Plate\Data\Amateur_Runner\S1\T1\S1T1V12_c3d.trc
DataRate	CameraRate	NumFrames	NumMarkers	Units	OrigDataRate	OrigDataStartFrame	OrigNumFrames
200.000000	200.000000	4	39	mm	200.000000	39	312
Frame#	Time	LSHO			RSHO			LICST			RICST			LASIS			LHEEL			RASIS			LTROC			RTROC			SACR			LTH1			LSK4			LTH2			LTH3			RHM5			LSK2			LTH4			RTH1			LTOE			RTH2			RTH3			RTH4			LLEP			RLEP			LSK1			LSK3			RSK1			LHM5			RSK2			LFT1			RSK3			RSK4			LLME			RLME			RTOE			RHEEL			RFT1			RFT2			LFT2			
		X1	Y1	Z1	X2	Y2	Z2	X3	Y3	Z3	X4	Y4	Z4	X5	Y5	Z5	X6	Y6	Z6	X7	Y7	Z7	X8	Y8	Z8	X9	Y9	Z9	X10	Y10	Z10	X11	Y11	Z11	X12	Y12	Z12	X13	Y13	Z13	X14	Y14	Z14	X15	Y15	Z15	X16	Y16	Z16	X17	Y17	Z17	X18	Y18	Z18	X19	Y19	Z19	X20	Y20	Z20	X21	Y21	Z21	X22	Y22	Z22	X23	Y23	Z23	X24	Y24	Z24	X25	Y25	Z25	X26	Y26	Z26	X27	Y27	Z27	X28	Y28	Z28	X29	Y29	Z29	X30	Y30	Z30	X31	Y31	Z31	X32	Y32	Z32	X33	Y33	Z33	X34	Y34	Z34	X35	Y35	Z35	X36	Y36	Z36	X37	Y37	Z37	X38	Y38	Z38	X39	Y39	Z39	

40	0.195	-1712.557373046875	1483.4892578125	-452.20458984375	-1732.135009765625	1435.528564453125	-124.8206939697266	-1768.349975585938	997.6519775390624	-459.7996826171875	-1769.89208984375	1028.59228515625	-161.966064453125	-1721.387573242188	962.9263916015624	-432.0872802734375	-2068.254638671875	425.94873046875	-371.34033203125	-1730.009155273438	982.5640869140624	-164.3929443359375	-1822.984130859375	871.0988159179688	-473.88427734375	-1830.529418945312	888.3126831054688	-138.0085906982422	-1888.245361328125	1024.821166992188	-307.2332458496094	-1652.84228515625	763.5725708007812	-463.419189453125	-1921.821655273438	466.1474609375	-409.4345397949219	-1728.872314453125	733.1893310546875	-489.5199279785156	-1618.062744140625	665.5099487304688	-462.0733337402344	-1721.31689453125	59.36272430419922	-182.6905670166016	-1831.772827148438	487.85546875	-455.823486328125	-1696.421508789062	637.497802734375	-476.8826904296875	-1675.211791992188	781.822265625	-153.0927886962891	-1992.179931640625	180.2533416748047	-376.8447570800781	-1748.65673828125	760.848876953125	-127.9573364257812	-1651.666259765625	683.79052734375	-163.3458099365234	-1728.610473632812	663.9614868164062	-147.5815277099609	-1630.71826171875	503.9762573242188	-452.4284973144531	-1670.841064453125	503.9602966308594	-190.9799652099609	-1812.232543945312	406.9079895019531	-443.9010620117188	-1911.665283203125	390.05859375	-433.4334411621094	-1723.483154296875	320.1402893066406	-183.0126647949219	-2034.886474609375	235.94482421875	-432.1374206542969	-1800.174438476562	348.3052062988281	-190.5141906738281	-2085.477294921875	408.3856506347656	-340.0143432617188	-1756.49267578125	226.1561889648438	-201.4847412109375	-1829.98388671875	255.4361877441406	-217.8106689453125	-2032.046997070312	385.4466857910156	-420.5291137695312	-1833.620361328125	122.1777954101562	-204.762451171875	-1649.61083984375	68.12873840332031	-262.0027160644531	-1906.983520507812	99.736083984375	-243.4442596435547	-1898.192749023438	70.32235717773438	-275.9990539550781	-1904.547119140625	72.85809326171875	-217.8358306884766	-2097.318115234375	413.2331237792969	-394.3768005371094
41	0.2	-1698.995849609375	1484.906860351562	-452.9994812011719	-1712.9267578125	1437.143432617188	-124.8115234375	-1754.591064453125	999.5670166015624	-459.7603454589844	-1751.373291015625	1029.635986328125	-162.119384765625	-1707.299926757812	964.2418823242188	-432.6141052246094	-2043.514526367188	419.9447937011719	-371.8846435546875	-1711.243286132812	983.2679443359376	-164.2944946289062	-1807.814331054688	871.7037353515625	-472.9228210449219	-1814.564453125	888.208740234375	-136.7694244384766	-1871.8212890625	1025.98583984375	-305.2791748046875	-1635.620971679688	768.1412353515625	-462.8475036621094	-1897.208740234375	463.3497314453125	-409.2657165527344	-1711.105102539062	735.763916015625	-488.9512023925781	-1597.476440429688	670.9202270507812	-461.6914367675781	-1720.85107421875	59.29630661010742	-182.4489135742188	-1806.414184570312	488.1174621582031	-453.2883605957031	-1676.512817382812	640.8657836914062	-476.5749816894531	-1662.410888671875	777.4102172851562	-151.7798461914062	-1958.789916992188	178.5692901611328	-375.3303527832031	-1737.27392578125	758.8150024414062	-128.3967590332031	-1640.840576171875	679.0211791992188	-162.2699890136719	-1720.282104492188	661.6187133789062	-147.4954833984375	-1605.900512695312	508.418701171875	-451.00244140625	-1664.316040039062	501.3583068847656	-190.9611968994141	-1786.10498046875	407.816650390625	-443.0721740722656	-1885.3916015625	388.2752380371094	-433.6225891113281	-1720.3173828125	318.3792114257812	-182.8972320556641	-1999.78857421875	231.6311187744141	-433.6807250976562	-1795.78564453125	348.2195129394531	-190.4763488769531	-2060.89111328125	402.1451110839844	-341.3572387695312	-1754.427978515625	225.494140625	-201.4656524658203	-1827.746826171875	256.27490234375	-217.2899017333984	-2004.407470703125	380.4764099121094	-420.3230590820312	-1832.086303710938	122.8159484863281	-203.8586883544922	-1649.944580078125	67.82535552978516	-262.2604370117188	-1904.930908203125	100.7968292236328	-244.2939758300781	-1898.345825195312	71.6251449584961	-276.2422180175781	-1903.936157226562	73.59371185302734	-217.5885467529297	-2072.292236328125	406.2482604980469	-395.8163452148438
42	0.205	-1685.708862304688	1486.763793945312	-453.8422546386719	-1695.846069335938	1439.174926757812	-125.5889511108398	-1740.253295898438	1001.568786621094	-458.8711547851562	-1736.356811523438	1029.962646484375	-161.6343994140625	-1692.055541992188	966.2844848632812	-433.0413513183594	-2018.72216796875	413.46630859375	-372.6478576660156	-1695.811279296875	983.65771484375	-165.0874328613281	-1792.451171875	873.0831298828125	-471.8340759277344	-1799.052490234375	888.7353515625	-136.1540069580078	-1855.849731445312	1027.148193359375	-303.4720458984375	-1618.286376953125	772.5971069335938	-461.8544921875	-1873.01513671875	461.6371459960938	-409.2442932128906	-1693.178344726562	738.1234130859375	-488.5452575683594	-1578.488403320312	676.3414916992188	-461.0198059082031	-1720.72216796875	59.06755828857422	-182.7391815185547	-1782.872436523438	488.1204223632812	-452.8333435058594	-1656.421630859375	644.46630859375	-475.3654479980469	-1649.522827148438	773.9781494140625	-150.4704132080078	-1925.450439453125	174.3480987548828	-375.2463073730469	-1724.678466796875	757.93359375	-128.0932312011719	-1631.241088867188	674.3156127929688	-161.9815979003906	-1712.427124023438	659.9865112304688	-148.3501281738281	-1582.218017578125	513.8423461914062	-450.068115234375	-1658.105834960938	498.7376403808594	-191.6620025634766	-1760.19091796875	408.5126342773438	-442.9850769042969	-1858.52099609375	385.9329833984375	-433.1500244140625	-1716.176513671875	317.8577270507812	-183.1676025390625	-1971.673095703125	225.5215911865234	-432.8007507324219	-1792.13720703125	348.5486145019531	-190.7122802734375	-2035.152709960938	394.512939453125	-341.2364807128906	-1751.348754882812	225.5571136474609	-201.9207458496094	-1824.4990234375	256.18896484375	-217.2403564453125	-1978.567138671875	375.2162170410156	-421.1590270996094	-1831.4697265625	123.637580871582	-204.4209594726562	-1649.9599609375	67.22447204589844	-262.412109375	-1904.217895507812	101.6573333740234	-244.4963989257812	-1898.093017578125	72.0928955078125	-276.0301818847656	-1903.836669921875	74.24307250976562	-217.4174957275391	-2046.62158203125	398.9867248535156	-396.6641235351562
43	0.21	-1671.624267578125	1489.125366210938	-453.9920043945312	-1678.338745117188	1441.39208984375	-125.8214950561523	-1725.91845703125	1003.497802734375	-458.6218872070312	-1717.874633789062	1030.90283203125	-160.7619323730469	-1676.90087890625	968.5921630859376	-433.142333984375	-1993.34716796875	405.7684936523438	-373.2682800292969	-1679.618530273438	984.0443115234376	-165.0761871337891	-1777.2978515625	875.6517333984375	-471.7477416992188	-1783.445922851562	889.888427734375	-135.4226837158203	-1839.952880859375	1029.179809570312	-301.7517700195312	-1601.627075195312	777.2444458007812	-461.7581787109375	-1849.365966796875	458.6875610351562	-409.7464599609375	-1675.31103515625	741.2697143554688	-487.8188171386719	-1559.977661132812	681.8108520507812	-460.4844055175781	-1720.81005859375	58.72360610961914	-182.8693542480469	-1758.8056640625	487.7265014648438	-451.9118347167969	-1636.762817382812	648.2755126953125	-474.9740600585938	-1636.207763671875	771.4944458007812	-149.7427520751953	-1891.933349609375	169.4174499511719	-376.1931457519531	-1711.882446289062	758.7977905273438	-128.0032653808594	-1624.532836914062	670.3219604492188	-161.5956115722656	-1703.416748046875	660.8416137695312	-147.6062164306641	-1559.416381835938	519.7897338867188	-449.0060119628906	-1650.925048828125	497.5134582519531	-192.6825866699219	-1733.145751953125	408.1487121582031	-442.2100524902344	-1831.766479492188	383.4080505371094	-432.810791015625	-1712.55078125	317.8251037597656	-184.3822784423828	-1938.1943359375	220.4577178955078	-433.1456604003906	-1786.92529296875	349.5068054199219	-190.4512786865234	-2009.556884765625	386.5841064453125	-341.8068237304688	-1749.282348632812	225.7772369384766	-201.6541137695312	-1821.50634765625	258.5927429199219	-216.4039154052734	-1951.585083007812	369.1379089355469	-421.3722839355469	-1831.086303710938	124.6254348754883	-204.1798248291016	-1650.0849609375	66.72457885742188	-262.7076721191406	-1903.756591796875	102.6611175537109	-244.1647338867188	-1898.115234375	72.8255844116211	-276.0755004882812	-1903.669921875	75.49702453613281	-218.0326232910156	-2021.061279296875	390.9215393066406	-397.0122680664062
